<?xml version="1.0" encoding="UTF-8"?><svg id="Layer_2" xmlns="http://www.w3.org/2000/svg" viewBox="0 0 500.62 500.6"><defs><style>.cls-1{fill:#404040;}</style></defs><g id="Layer_1-2"><path class="cls-1" d="m0,272C0,257.33,0,242.67,0,228c.85-6.09,1.65-12.18,2.56-18.26C17.16,112.13,93.89,28.96,190.13,6.32c12.5-2.94,25.19-4.51,37.87-6.32h44c11.04,1.53,22.14,2.68,33,5.24,70.08,16.54,123.81,55.76,160.94,117.33,31.12,51.6,40.33,107.7,31.48,166.85-9.42,62.93-39.74,114.52-88.65,154.59-57.99,47.51-124.97,64.32-198.86,53.38-93.18-13.8-173.43-84.09-200.09-174.46C4.91,306.24,2.17,289.19,0,272Zm464.05-22.7c-.15-117.99-95.9-213.4-214.11-213.35-118.61.05-214.06,95.72-213.99,214.49.07,118.2,95.94,213.29,214.37,213.74,117.13.45,215.26-97.51,213.73-214.87Z"/><path class="cls-1" d="m246.96,123.63c13.92.58,27.69,2.52,40.5,8.93,29.08,14.57,38.68,45.55,22.91,73.99-6.31,11.38-14.96,20.78-24.82,29.15-1.91,1.62-3.77,3.3-5.8,4.75-12.27,8.77-17.78,20.84-17.36,35.7.19,6.73-.51,13.03-7.68,15.79-8.51,3.27-17.26,4.18-25.42-1.06-3.56-2.29-4.88-6.32-5.35-10.38-2.83-24.36,3.65-45.17,23.39-60.9,5.47-4.36,10.97-8.7,16.23-13.31,5.11-4.48,8.68-10.06,10.33-16.76,2.5-10.12-2.09-19.76-11.77-23.7-9.94-4.04-20.2-3.94-30.37-.89-4.88,1.46-8.9,4.51-11.98,8.65-1.59,2.14-3.11,4.33-4.67,6.49-5.98,8.24-12.43,10.14-21.75,6.41-8.28-3.31-13.33-11.61-12.07-20.34,2.09-14.53,10.91-24.38,22.9-31.71,13.04-7.96,27.6-10.37,42.78-10.82Z"/><path class="cls-1" d="m242.47,315.68c14.49-.03,26.67,12.06,26.46,26.26-.2,13.73-12.37,25.89-25.97,25.96-14.22.08-26.04-11.68-26.15-26-.11-14.54,11.3-26.2,25.66-26.22Z"/></g></svg>