<?xml version="1.0" encoding="UTF-8"?><svg id="Layer_2" xmlns="http://www.w3.org/2000/svg" viewBox="0 0 440.84 500.55"><defs><style>.cls-1{fill:#404040;}</style></defs><g id="Layer_1-2"><path class="cls-1" d="m237.38,0c7.67,1.49,15.4,2.7,22.99,4.53,25.99,6.27,48.58,18.95,68.22,36.98,29.63,27.2,47.44,60.7,52.42,100.62,4.68,37.52-2.79,72.69-22.92,104.82-16.45,26.26-33.36,52.24-50.18,78.27-2.31,3.57-2.14,4.89,2.44,5.69,26.3,4.6,52.26,10.54,76.77,21.54,15.94,7.15,30.95,15.73,42.15,29.58,16.22,20.06,15.32,43.94-2.31,63-12.15,13.13-27.53,21.46-43.71,28.33-30.02,12.73-61.62,19.09-93.84,23.07-30.17,3.73-60.46,4.83-90.75,3.68-47.62-1.81-94.69-7.53-139.26-25.88-16.71-6.88-32.59-15.3-45.19-28.77C.08,430.38-3.87,410.7,3.98,393.82c5.82-12.51,15.58-21.46,26.84-28.94,20.28-13.47,42.97-21.16,66.33-27.02,11.13-2.79,22.44-4.91,33.72-7.02,3.95-.74,4.32-1.96,2.25-5.17-16.7-25.91-33.36-51.84-49.93-77.84-13.49-21.17-21.51-44.29-23.85-69.29-4.23-45.2,8.02-85.6,36.97-120.43C122.07,27.14,154.84,7.65,195.08,1.6c2.78-.42,5.54-1.06,8.3-1.6,11.33,0,22.67,0,34,0ZM89.31,157.8c.41,20.27,2.86,36.29,8.81,51.74,5.45,14.16,14.33,26.29,22.35,38.93,31.8,50.07,63.69,100.08,95.52,150.13,4.46,7.02,4.31,7.01,8.85-.12,35.35-55.51,70.66-111.05,106.14-166.48,19.48-30.43,24.42-63.47,17.22-98.29-6.76-32.67-24.3-59.1-51.37-78.43-40.52-28.93-85.04-33.6-129.79-13.32-50.33,22.82-75.39,64.42-77.73,115.83Zm132.01,312.12c24.27-.61,49.04-1.73,73.65-5.24,27.29-3.9,54.08-9.7,79.4-21.05,9.77-4.38,19.06-9.54,27.16-16.65,10.43-9.17,10.83-18.54,1.14-28.27-8.86-8.9-19.68-14.75-31.09-19.58-25.37-10.75-52.19-15.8-79.24-19.93-4.32-.66-6.68,1.18-8.88,4.65-16.03,25.34-32.13,50.63-48.38,75.83-8.57,13.3-20.76,13.37-29.28.15-16.34-25.34-32.55-50.76-48.59-76.28-2.33-3.7-4.92-4.91-9.03-4.31-23.27,3.44-46.33,7.81-68.53,15.78-14.8,5.31-29.1,11.72-40.64,22.84-11.05,10.65-10.59,20.14,1.24,29.94,16.69,13.82,36.56,21.06,56.96,26.88,40.37,11.51,81.86,14.38,124.12,15.24Z"/><path class="cls-1" d="m220.33,236.14c-40.73-.05-74.03-33.44-74.01-74.21.02-40.69,33.49-73.95,74.37-73.89,40.64.06,73.85,33.6,73.77,74.5-.08,40.35-33.61,73.65-74.12,73.6Zm-42.91-74.28c-.17,23.69,19.33,43.46,42.94,43.52,23.28.06,42.8-19.43,43-42.95.2-23.78-18.63-43-42.45-43.31-24.02-.31-43.32,18.65-43.49,42.74Z"/></g></svg>