<?xml version="1.0" encoding="UTF-8"?><svg id="Layer_2" xmlns="http://www.w3.org/2000/svg" viewBox="0 0 438.59 500.33"><defs><style>.cls-1{fill:#404040;}</style></defs><g id="Layer_1-2"><path class="cls-1" d="m24.24,0h327c17.81,6.61,24.98,16.89,25.04,35.9.02,6.17-.01,12.33.01,18.5.03,7.16.27,7.42,7.23,7.44,7.33.03,14.66-.04,22,.04,6.99.07,13.54,1.72,19.26,5.92,9.58,7.03,13.83,16.47,13.82,28.4-.11,123.31-.07,246.63-.07,369.94,0,1.33,0,2.67-.04,4-.64,16.3-14.52,30.13-30.84,30.14-104.65.08-209.3.08-313.95,0-15.93-.01-29.31-12.66-30.84-28.47-.89-9.15-.45-18.32-.44-27.48,0-4.42-1.51-6.39-6.13-6.24-6.99.23-14,.07-20.99.05C13.39,438.07.01,424.77,0,402.97,0,280.15,0,157.34.02,34.52c0-2.66.04-5.35.49-7.96C2.85,12.77,11.77,4.78,24.24,0Zm319.69,219.32c0-59.81,0-119.63,0-179.44,0-7.79-.1-7.91-7.73-7.91-98.64,0-197.27,0-295.91,0-7.68,0-7.84.17-7.84,7.84,0,119.46,0,238.93,0,358.39,0,7.51.03,7.53,7.52,7.53,98.8,0,197.61,0,296.41,0,7.53,0,7.54-.02,7.55-7.46,0-59.65,0-119.3,0-178.94Zm62.21,62.08c0-37.49,0-74.98,0-112.48,0-22.33,0-44.66,0-66.99,0-7.56-.1-7.65-7.43-7.67-4.83-.01-9.66-.01-14.5,0-7.83.02-7.91.07-7.91,7.71-.02,19,0,37.99,0,56.99,0,80.98-.02,161.97.02,242.95,0,9.09-1.66,17.53-7.85,24.63-7.31,8.39-16.6,11.65-27.55,11.64-78.48-.08-156.97-.04-235.45-.04-1.83,0-3.67.11-5.5,0-3.8-.25-5.5,1.32-5.38,5.24.18,5.49.03,11,.04,16.49,0,8.11.02,8.15,8,8.15,98.31,0,196.63,0,294.94,0q8.55,0,8.57-8.67c0-59.32,0-118.64,0-177.96Z"/><path class="cls-1" d="m187.95,219.26c-35.82,0-71.64.04-107.46-.02-10.2-.02-17.28-6.28-17.6-15.25-.29-8.25,4.79-14.93,12.93-16.55,2.74-.55,5.63-.56,8.45-.56,69.14-.03,138.29-.03,207.43,0,2.98,0,6.03.07,8.93.67,7.83,1.62,13.14,8.52,12.81,16.2-.33,7.65-6.22,14.15-14.04,15.26-2.29.33-4.65.25-6.98.25-34.82.01-69.64,0-104.46,0Z"/><path class="cls-1" d="m187.97,344.25c-35.82,0-71.64.04-107.46-.02-10.21-.02-17.3-6.28-17.62-15.23-.3-8.25,4.8-14.95,12.91-16.57,2.75-.55,5.63-.56,8.45-.56,69.14-.03,138.28-.03,207.43,0,2.82,0,5.69.03,8.45.55,8.14,1.53,13.65,8.43,13.31,16.3-.34,8.04-6.7,14.61-15.01,15.4-1.98.19-3.99.13-5.99.13-34.82,0-69.64,0-104.46,0Z"/><path class="cls-1" d="m188,249.68c36.15,0,72.3-.06,108.45.03,12.03.03,19.95,10.65,16.01,21.23-2.14,5.74-6.29,9.36-12.41,10.34-2.95.47-5.97.66-8.95.66-68.8.04-137.6.03-206.41,0-2.49,0-5.01-.11-7.47-.46-9.33-1.34-14.9-8.14-14.32-17.29.53-8.28,7.16-14.4,16.14-14.47,15.99-.13,31.99-.05,47.98-.05,20.32,0,40.65,0,60.97,0Z"/><path class="cls-1" d="m219.21,125.32c-25.82,0-51.64.06-77.46-.03-9.13-.03-16.22-6.73-16.61-15.28-.38-8.22,5.96-15.35,14.87-16.5,2.96-.38,5.98-.46,8.97-.46,40.31-.03,80.63-.02,120.94-.02,7,0,13.99,0,20.99,0,1.83,0,3.67,0,5.49.16,10.73.95,17.53,7.76,17.06,17.02-.46,9.05-7.71,15.09-18.27,15.1-25.32.03-50.64,0-75.96,0Z"/></g></svg>