<?xml version="1.0" encoding="UTF-8"?><svg id="Layer_2" xmlns="http://www.w3.org/2000/svg" viewBox="0 0 392.79 499.82"><defs><style>.cls-1{fill:#404040;}</style></defs><g id="Layer_1-2"><path class="cls-1" d="m204.39,0c2.91,1.8,6.37,1.52,9.52,2.5,15.5,4.84,26.87,14.36,33.3,29.37,1.26,2.94,2.84,3.94,5.94,3.88,8.99-.17,18-.1,26.99-.03,2.66.02,5.35.11,7.97.52,6.48,1.01,9.57,4.62,9.69,11.16.08,4.66.18,9.34-.02,13.99-.14,3.14,1.08,3.94,4.08,3.91,13.33-.14,26.66-.16,39.99-.03,24.75.24,44.87,16.68,49.91,40.84.81,3.87.99,7.94.99,11.91.05,110.64.06,221.29.03,331.93,0,29.94-20.16,49.88-50.21,49.88-98.15,0-196.29,0-294.44,0-22.24,0-42.44-15.49-47.13-36.06-.97-4.26-.97-8.6-.98-12.93C0,339.85-.01,228.88.01,117.9c0-30.75,21.86-52.59,52.54-52.66,12.66-.03,25.33-.13,37.99.07,3.55.06,4.67-1.1,4.49-4.54-.23-4.49-.11-9-.04-13.49.11-6.78,3.3-10.47,10.15-11.14,10.8-1.06,21.65-.4,32.47-.36,3.67.01,5.48-1.08,7.12-4.49,7.75-16.17,20.59-26.17,38.11-30.1.96-.22,2.03-.1,2.56-1.19h19ZM23.8,284.68c0,54.66,0,109.32,0,163.99,0,2.17.05,4.33.11,6.5.18,7.1,3.7,12.29,9.45,16.1,5.46,3.61,11.56,4.87,18.05,4.87,96.66-.03,193.32,0,289.98-.04,18.62,0,27.59-9.05,27.59-27.46,0-80.99,0-161.99,0-242.98,0-29.33.05-58.66-.02-87.99-.04-16.95-10.79-27.91-27.6-28.1-13-.15-26,.07-39-.1-3.43-.04-4.71.96-4.61,4.5.21,7.49.11,15,.04,22.5-.09,9.44-5.07,14.42-14.59,14.43-58,.04-115.99.04-173.99,0-9.39,0-14.12-4.74-14.23-14.08-.08-7.33-.26-14.68.06-21.99.18-4.08-.91-5.47-5.18-5.38-12.33.27-24.68.56-36.99-.02-16.79-.78-29.41,12.22-29.26,29.29.49,55.32.18,110.66.18,165.99ZM196.53,107.04c24.14,0,48.28-.02,72.42.02,2.68,0,4.78.12,4.72-3.75-.2-13.32-.15-26.64-.02-39.95.03-2.93-1.05-3.65-3.78-3.61-8.66.13-17.31.04-25.97.04-10,0-13.77-2.85-16.4-12.4-4.75-17.22-21.58-28.15-38.11-24.42-13.57,3.05-22.01,11.81-26.01,24.93-2.76,9.05-6.36,11.89-15.78,11.9-7.99,0-15.99.16-23.97-.07-3.44-.1-4.58.85-4.52,4.42.2,12.65.22,25.31,0,37.96-.07,3.91,1.03,5.07,5.01,5.04,24.14-.18,48.28-.09,72.42-.09Z"/><path class="cls-1" d="m253.4,196.25c22.16,0,44.32-.03,66.48.02,8.05.02,13.46,5.08,13.37,12.27-.06,5.37-3.58,10.06-8.83,11.28-2.4.55-4.95.66-7.43.66-42.65.04-85.31.03-127.96.03-1.5,0-3.01.03-4.49-.12-7.29-.73-12.05-5.65-11.93-12.25.13-6.9,5.26-11.81,12.82-11.86,17.33-.1,34.66-.03,51.98-.03,5.33,0,10.66,0,15.99,0Z"/><path class="cls-1" d="m252.91,315.56c-21.47,0-42.95.01-64.42-.02-2.16,0-4.35-.04-6.46-.44-5.73-1.09-9.59-6.06-9.44-11.81.16-5.82,4.18-10.41,10.02-11.22,2.3-.32,4.64-.4,6.96-.41,42.28-.02,84.56-.02,126.84.01,2.32,0,4.67.09,6.96.42,5.44.77,9.45,5.06,9.84,10.29.45,6.02-2.82,11.02-8.47,12.48-2.22.57-4.61.65-6.92.66-21.64.05-43.28.03-64.92.03Z"/><path class="cls-1" d="m252.88,386.96c22.14,0,44.27-.02,66.41,0,8.74.01,14.04,4.63,13.96,12.04-.08,7.05-5.53,11.82-13.81,11.83-44.27.04-88.55.01-132.82.02-5.32,0-9.89-1.42-12.56-6.47-2.22-4.21-1.91-8.35.69-12.29,2.66-4.03,6.61-5.17,11.23-5.16,22.3.06,44.61.03,66.91.02Z"/><path class="cls-1" d="m95.5,235.05c-3.22.1-5.81-1.29-7.99-3.51-8.06-8.2-16.21-16.31-24.1-24.67-5.14-5.44-5.14-12.9-.46-17.49,4.79-4.7,12.31-4.16,17.83,1.42,3.98,4.03,8,8.04,11.68,12.34,2.33,2.71,3.73,3.15,6.58.35,11.17-10.98,22.6-21.68,34.03-32.39,5.83-5.47,13.14-5.22,18.08.37,4.3,4.88,4.21,11.52-.63,16.15-15.29,14.63-30.69,29.13-46.06,43.67-2.51,2.37-5.4,3.88-8.96,3.77Z"/><path class="cls-1" d="m95.91,330.15c-3.42.11-6.11-1.01-8.32-3.27-8.16-8.32-16.43-16.54-24.44-25-5.01-5.28-4.79-12.97.07-17.47,4.93-4.56,11.54-4.2,16.94,1.13,4.26,4.21,8.48,8.48,12.44,12.98,2.26,2.57,3.79,2.81,6.35.32,11.23-10.9,22.61-21.65,33.99-32.39,4.68-4.42,9.66-5.24,14.57-2.63,7.31,3.89,9.23,12.7,3.33,18.45-15.6,15.24-31.54,30.13-47.37,45.12-2.16,2.04-4.88,2.75-7.55,2.75Z"/><path class="cls-1" d="m59.54,388.36c.21-4.66,2-8.43,6.44-10.39,4.64-2.04,9.27-1.69,13.03,1.81,4.63,4.3,9.08,8.84,13.23,13.6,2.59,2.97,4.24,3.11,7.13.28,10.95-10.73,22.14-21.2,33.25-31.75,6.17-5.86,12.76-6.07,18.03-.61,5.2,5.39,4.77,12.09-1.38,17.96-14.58,13.91-29.21,27.78-43.89,41.58-7.31,6.87-12.56,6.6-19.68-.67-7.34-7.5-14.68-15.01-22.04-22.49-2.56-2.6-4.19-5.56-4.12-9.32Z"/></g></svg>