<?xml version="1.0" encoding="UTF-8"?><svg id="Layer_2" xmlns="http://www.w3.org/2000/svg" viewBox="0 0 500.42 412.53"><defs><style>.cls-1{fill:#404040;}</style></defs><g id="Layer_1-2"><path class="cls-1" d="m0,178.23c5.92-17.85,19.47-22.52,33.4-22.1,7.16.21,14.34-.18,21.49.12,4.15.17,5.82-1.26,6.53-5.39,4.97-29.03,10.18-58.02,15.3-87.02,2.37-13.43,4.58-26.89,7.16-40.28C86.9,7.85,102.31-2.36,118.37.47c46.57,8.19,93.14,16.4,139.7,24.65,54.25,9.61,108.48,19.27,162.72,28.93,17.86,3.18,35.74,6.32,53.56,9.72,19.09,3.64,28.78,18.59,25.39,37.92-10.95,62.48-21.79,124.97-32.52,187.48-3.44,20.03-17.53,30.03-38.68,26.9-6.21-.92-6.26-.91-6.26,5.21-.02,20.5.02,40.99-.02,61.49-.03,17.47-12.02,29.71-29.5,29.72-121.31.06-242.61.04-363.92.01-14.75,0-23.77-8.03-28.85-21.27v-213Zm211-4c-58.98,0-117.95,0-176.93,0-2.33,0-4.67-.03-6.99.17-5.11.44-8.98,4.08-9.7,9.16-.28,1.97-.21,3.99-.21,5.99,0,63.31,0,126.62,0,189.92,0,1.83-.09,3.68.14,5.49.57,4.52,2.94,7.63,7.36,9.17,2.76.96,5.58.82,8.4.82,118.45,0,236.91,0,355.36,0,1.33,0,2.67.03,4-.04,7.79-.45,12.3-4.99,12.3-12.79.04-65.14.04-130.28,0-195.42,0-8.09-4.21-12.2-12.3-12.45-2-.06-4-.03-6-.03-58.48,0-116.95,0-175.43,0Zm26.95-18.06c17.33,0,34.66,0,52,0,33.66,0,67.33-.1,100.99.04,19.31.08,31.33,12.25,31.34,31.24.02,33.33,0,66.66,0,99.99q0,10.34,10.5,10.76c.67.03,1.33.04,2,.05,10.48.14,13.21-2.1,15.01-12.46,7.81-45.11,15.52-90.24,23.5-135.32.82-4.65-.46-6.23-4.84-7-38.83-6.91-77.62-14.03-116.44-20.97-53.93-9.65-107.88-19.2-161.82-28.79-30.8-5.47-61.62-10.84-92.39-16.5-4.49-.83-5.85.61-6.53,4.68-3.79,22.65-7.76,45.26-11.66,67.89-1.1,6.37-1.09,6.39,5.33,6.39,51,0,101.99,0,152.99,0Zm244.8-60.26c.14-9.3-4.08-13.58-13.84-15.27-26.24-4.56-52.51-8.99-78.73-13.66-91.42-16.26-182.82-32.61-274.23-48.91-7.44-1.33-13.22,2.39-14.79,9.79-1.48,6.99-2.74,14.04-3.9,21.1-1.58,9.64-1.52,9.75,8.13,11.5,43.37,7.87,86.73,15.72,130.11,23.5,59.14,10.59,118.29,21.1,177.43,31.65,20.14,3.59,40.27,7.17,60.4,10.81,2.22.4,4,.45,4.49-2.35,1.7-9.83,3.44-19.66,4.93-28.15Z"/><path class="cls-1" d="m93.51,322.44c-9.32,0-18.65.08-27.97-.02-13.58-.15-21.79-8.41-21.85-21.86-.04-7.49-.08-14.99.02-22.48.15-11.34,8.71-20.6,20.02-20.78,19.81-.31,39.63-.26,59.44-.02,10.48.13,18.67,7.56,20.2,18.01,1.38,9.42,1.34,18.98.15,28.37-1.48,11.73-9.73,18.58-21.53,18.74-9.49.13-18.98.03-28.47.03Zm-.52-18.18c9.16,0,18.32-.06,27.47.03,3.72.04,5.55-1.38,5.46-5.29-.13-6.16-.1-12.32-.01-18.48.05-3.49-1.28-5.23-4.96-5.22-18.15.07-36.3.05-54.44.02-3.84,0-5.35,1.88-5.29,5.58.09,5.83.19,11.66-.04,17.48-.17,4.31,1.55,6,5.84,5.92,8.65-.17,17.31-.05,25.97-.05Z"/><path class="cls-1" d="m79,364.33c-7.33,0-14.66.08-21.99-.02-6.12-.08-10.09-3.55-10.19-8.66-.1-5.05,3.79-9.19,9.74-9.28,14.82-.24,29.65-.24,44.48-.02,5.86.08,9.99,4.42,9.79,9.31-.2,5.04-4.25,8.54-10.33,8.64-7.16.12-14.33.03-21.49.03Z"/><path class="cls-1" d="m166.91,364.33c-7.16,0-14.32.09-21.48-.03-6.46-.1-10.56-3.67-10.53-8.87.04-5.26,4.03-9.04,10.42-9.12,14.32-.17,28.64-.17,42.96-.01,6.49.07,10.82,4.24,10.61,9.57-.21,5.02-4.49,8.39-11,8.46-6.99.08-13.99.02-20.98.01Z"/><path class="cls-1" d="m254.82,364.33c-7.16,0-14.32.09-21.48-.03-6.31-.1-10.44-3.81-10.4-9.04.04-4.97,4.03-8.85,10.08-8.93,14.65-.19,29.3-.2,43.95,0,5.94.08,9.98,4.19,9.91,9.15-.08,5.08-4.07,8.7-10.09,8.81-7.32.13-14.65.03-21.97.04Z"/><path class="cls-1" d="m342.85,364.33c-7.15,0-14.31.09-21.46-.03-6.35-.1-10.44-3.75-10.42-9.01.02-5.01,3.95-8.88,10.03-8.96,14.64-.2,29.29-.21,43.93,0,6,.08,9.98,4.09,9.93,9.12-.04,5.29-4.07,8.77-10.54,8.86-7.15.1-14.31.02-21.46.02Z"/></g></svg>