<?xml version="1.0" encoding="UTF-8"?><svg id="Layer_2" xmlns="http://www.w3.org/2000/svg" viewBox="0 0 499.53 499.89"><defs><style>.cls-1{fill:#404040;}</style></defs><g id="Layer_1-2"><path class="cls-1" d="m284,0c2.88,1.82,6.33,1.71,9.46,2.75,24.11,7.98,39.36,28.35,39.7,54.68.41,30.65.18,61.32.07,91.98-.04,10.4-6.82,17.58-15.86,17.38-9.09-.21-15.32-7.48-15.33-18-.02-29.99.01-59.99-.02-89.98-.02-15.9-10.14-27.37-26.1-27.53-43.14-.44-86.29-.15-129.47-.15-.1,1.83,1.26,1.76,2.27,2.1,9.43,3.18,18.85,6.38,28.28,9.55,20.86,7.02,31.2,21.3,31.29,43.41.06,15.33.01,30.66.01,45.99,0,89.15,0,178.29,0,267.44q0,6.56,6.33,6.56c20,0,39.99.03,59.99,0,16.19-.03,27.37-11.14,27.39-27.26.04-30.49-.03-60.99.04-91.48.02-10.63,7.29-17.35,17.5-16.47,6.51.56,12.19,5.79,13.27,12.29.24,1.48.43,2.98.42,4.47-.22,32.82.8,65.65-.49,98.46-.97,24.58-24.09,48.72-48.6,50.7-21.28,1.72-42.63.42-63.95.66-11.9.14-11.95.02-11.89,12.12.05,10.03-.06,19.98-5.35,29.04-10.58,18.12-30.52,25.53-51.27,18.67-38.02-12.56-75.99-25.28-113.97-37.97-5.49-1.84-11.17-3.26-16.23-6.22-10.59-6.18-17.54-15.12-20.35-27.14-.19-.82-.28-1.64-1.16-2.04C0,294.33,0,164.67,0,35c.38-.89.9-1.74,1.13-2.67C5.18,16.36,15.33,6.27,30.89,1.39c1.38-.43,3.04-.06,4.11-1.39h249Zm-106.95,270.93c0-61.32,0-122.64,0-183.96,0-9.1-1.94-11.92-10.32-14.71-39.57-13.18-79.23-26.1-118.67-39.64-10.06-3.46-17.1,2.13-17.09,12.27.15,122.98.09,245.95.11,368.93,0,7.83,2.43,11.17,9.83,13.64,39.71,13.26,79.52,26.22,119.08,39.9,10.49,3.62,17.3-2.51,17.24-12.46-.38-61.32-.19-122.64-.19-183.96Z"/><path class="cls-1" d="m446.16,235.66c-3.34-1.8-5.37-1.33-7.31-1.33-49.82-.03-99.65-.04-149.47-.02-4.22,0-8.29-.22-11.93-2.8-5.78-4.1-8.13-10.76-6.07-17.67,1.74-5.81,7.89-10.55,14.31-10.64,10.16-.13,20.33-.05,30.49-.05,41.16,0,82.32,0,123.48,0,1.81,0,3.62,0,6.75,0-5.25-5.36-9.66-9.94-14.16-14.43-11.66-11.67-23.37-23.29-35.04-34.94-3.34-3.34-6.25-6.89-6.43-12-.24-6.7,2.93-12.54,8.49-15.2,5.88-2.82,12.67-1.93,17.6,2.71,6.43,6.05,12.71,12.26,18.95,18.51,19.43,19.45,38.58,39.17,58.31,58.31,7.42,7.19,7.01,18.55-.07,25.43-25.56,24.86-50.54,50.3-75.79,75.48-7.85,7.83-18.7,7.34-24.67-.95-4.38-6.08-3.98-14.36,1.61-20.14,10.3-10.66,20.86-21.08,31.41-31.5,6.25-6.18,12.68-12.19,19.54-18.77Z"/></g></svg>