<?xml version="1.0" encoding="UTF-8"?><svg id="Layer_2" xmlns="http://www.w3.org/2000/svg" viewBox="0 0 470.75 500.04"><defs><style>.cls-1{fill:#404040;}</style></defs><g id="Layer_1-2"><path class="cls-1" d="m312.39,0c7.48,1.36,14.99,2.56,22.42,4.13,12.9,2.73,25.29,7.05,37.21,12.72,5.63,2.68,7.47,6.26,5.41,10.46-2.05,4.16-6.18,5.27-11.55,2.8-21.79-10.05-44.64-15.6-68.66-15.21-41.53.66-77.23,15.82-107.02,44.65-25.66,24.83-41.96,54.83-47.41,90.25-4.97,32.34.33,63.24,14.65,92.66,1.48,3.04,3.62,3,6.12,2.68,12.96-1.64,25.92-1.62,38.85.1,11.24,1.5,22.18,4.2,32.2,9.78,8.42,4.68,12.83,11.47,12.52,21.52-.41,13.49.04,27-.2,40.49-.06,3.67,1.18,5.13,4.6,6.19,78.99,24.4,160.07-13.81,192.02-90.61,25.94-62.35,11.65-127.97-38.21-175.5-1.45-1.38-2.98-2.69-4.32-4.16-3.14-3.44-3.28-7.22-.51-10.28,2.89-3.2,6.98-3.41,10.65-.21,10.96,9.58,20.51,20.44,28.99,32.28,46.8,65.39,38.61,154.78-15.54,214.77-26.75,29.63-59.9,47.72-99.23,54.04-24.82,3.99-49.46,1.83-73.63-4.95-4.09-1.15-4.84-.19-4.79,3.67.17,13,.18,26,0,39-.05,4.04.51,5.08,4.88,3.51,29.68-10.7,59.56-10.66,89.47-.79,3.8,1.25,7.4,2.98,10.82,5.1,7.41,4.59,11.05,11.01,10.95,19.91-.22,19.5-.26,39,.01,58.5.13,9.56-3.94,16.2-12,20.81-10.44,5.97-21.93,8.78-33.63,10.33-21.35,2.83-42.48,1.62-63-5.6-.78-.28-1.55-.61-2.35-.84-4.68-1.33-8.52-6.15-12.85-5.9-4.35.25-8.31,4.45-12.88,6.1-19.28,6.97-39.14,8.89-59.43,6.76-14.82-1.55-29.27-4.41-42.03-12.75-1.42-.93-2.46-.35-3.64.4-13.75,8.77-29.34,11.58-45.11,12.81-18.37,1.44-36.55-.37-54.08-6.61-4.41-1.57-8.69-3.38-12.56-6.05C3.41,482.66-.02,477.17,0,469.33c.15-42.66.15-85.33,0-127.99-.03-7.82,3.34-13.37,9.42-17.65,4.67-3.29,9.9-5.49,15.34-7.1,4.21-1.24,8.04.76,9.29,4.52,1.31,3.96-.28,7.66-4.46,9.34-4.16,1.67-8.42,3.04-12.13,5.67-2.92,2.07-3.18,3.97-.09,6.13,2.76,1.93,5.73,3.45,8.89,4.5,26.18,8.7,52.37,8.72,78.5-.17,2.81-.95,5.51-2.39,8.01-4.01,3.82-2.47,3.84-4.09.09-6.67-6.87-4.72-14.84-6.54-22.86-7.98-7.54-1.36-15.14-2.11-22.83-2.06-5.9.04-9.1-2.88-8.95-7.68.15-4.7,3.08-7.05,9.02-6.96,15.55.26,30.96,1.51,45.42,7.96,3.46,1.54,3.53-.24,3.52-2.79-.03-13,.54-26.03-.17-38.99-.66-11.97,4.9-19.17,15.03-23.93,1.05-.5,2.16-.9,3.17-1.47,2.95-1.66,8-1.12,8.84-4.2.69-2.52-2.22-5.97-3.41-9.06-25.37-66.09-15.05-126.31,30.95-179.85C198.58,26.34,234.69,7.61,277.17,1.27c2.42-.36,5.05.51,7.22-1.27C293.72,0,303.06,0,312.39,0Zm-15.09,419.23c15.24-.05,30.12-2.03,44.08-8.58,2.48-1.16,5.99-2.24,5.99-5.34,0-3.09-3.51-4.15-5.98-5.37-9.38-4.65-19.57-6.52-29.82-7.58-19.27-1.99-38.24-.5-56.4,6.82-3.11,1.26-7.69,2.49-7.57,6.29.1,3.32,4.46,4.55,7.47,5.87,13.46,5.88,27.66,7.94,42.24,7.9Zm-115.77-132.98c13.59-.58,27.09-2.05,39.92-7.16,3.8-1.52,9.55-2.78,9.64-6.79.11-4.55-5.84-5.67-9.71-7.21-11.38-4.53-23.37-6.41-35.55-6.79-16.27-.5-32.18,1.51-47.27,7.99-2.83,1.21-6.82,2.34-7.02,5.65-.21,3.58,3.97,4.52,6.71,5.78,13.7,6.26,28.35,7.91,43.28,8.53Zm1.35,99.9c11.33.13,24.11-1.67,36.48-5.97,12.16-4.23,12.97-5.6,12.88-18.14-.03-4.1-1.24-4.26-4.62-2.93-12.64,4.99-25.81,7.38-39.4,7.89-18.49.69-36.52-1.31-53.87-8.07-1.19-.47-2.65-1.8-3.31.94-2.48,10.35.09,15.51,10.07,19.39,12.87,5.01,26.29,6.9,41.77,6.88Zm-1.9-33.48c13.41-.14,26.57-1.78,39.25-6.4,11.26-4.1,11.99-5.37,12.01-17.32,0-4.21-.78-4.98-4.99-3.38-18.78,7.12-38.21,9.55-58.27,7.53-11.98-1.21-23.6-3.58-34.84-7.88-1.06-.4-2.36-1.51-3.08.77-2.7,8.54.53,15.81,8.87,19.23,13.14,5.38,26.96,7.19,41.05,7.45Zm-114.52,33.47c12.37.16,25.46-1.83,38.09-6.38,10.98-3.95,11.7-5.39,11.69-16.99,0-4.25-1.11-4.59-4.89-3.14-18.79,7.18-38.23,9.54-58.28,7.59-12.16-1.18-23.98-3.54-35.33-8.08-1.47-.59-2.71-1.16-3.25,1.28-2.24,10.06.14,14.81,9.94,18.65,13.16,5.16,26.9,7.17,42.03,7.08Zm-.88,33.02c12.81.36,25.67-1.8,38.17-6.06,11.45-3.91,13.08-6.52,12.45-17.98-.16-2.9-.76-4-3.83-2.57-2.85,1.32-5.87,2.36-8.91,3.17-28.75,7.59-57.23,7.17-85.33-3.16-1.58-.58-3.01-1.67-3.61,1.21-2.03,9.74.44,14.65,9.75,18.27,13.13,5.1,26.79,7.37,41.3,7.13Zm115.62,0c13.75.26,27.13-1.78,39.99-6.67,10.67-4.06,12.15-6.79,10.97-17.96-.27-2.54-.97-3.17-3.43-2.07-6.26,2.8-12.92,4.34-19.61,5.65-25.21,4.95-49.98,3.44-74.25-5.23-1.2-.43-2.97-2.43-3.8.65-2.51,9.31.2,14.97,9.22,18.48,13.14,5.11,26.81,7.42,40.91,7.15Zm-115.5,66.03c12.76.17,25.98-2.15,38.89-6.39,10.04-3.3,11.58-5.43,11.57-15.61,0-6.35.03-6.25-5.79-4.13-29.72,10.81-59.51,10.71-89.3.36-6.6-2.29-6-2.39-6.71,4.78-.73,7.39,2.65,11.2,8.96,13.49.78.28,1.53.66,2.32.93,12.72,4.26,25.77,6.61,40.07,6.57Zm1.03-32.97c12.08.12,25.15-1.93,37.75-6.5,11.02-3.99,11.81-5.52,11.75-16.98-.02-3.77-.76-4.57-4.5-3.03-12.23,5.05-25.09,7.45-38.29,8.09-19.13.93-37.8-1.16-55.67-8.51-1.38-.57-2.69-1.47-3.27,1.1-2.21,9.72.14,14.68,9.53,18.45,13.26,5.32,27.13,7.43,42.7,7.37Zm110.76,32.99c16.77,0,29.48-2.05,41.94-6.03,11.29-3.61,12.77-5.56,12.79-17.18,0-3.77-.42-4.95-4.65-3.37-29.35,10.95-58.94,11.43-88.65,1.33-7.89-2.68-7.5-2.67-8.01,6.02-.34,5.8,1.87,9.12,7,11.04,1.4.52,2.72,1.26,4.14,1.73,12.71,4.24,25.74,6.52,35.45,6.47Zm119.74,0c13.45.13,26.5-2.2,39.25-6.31,10.11-3.26,11.62-5.41,11.55-16.07q-.04-5.84-5.72-3.68c-19.84,7.55-40.32,9.24-61.29,6.87-10.46-1.18-20.54-3.72-30.32-7.58-1.14-.45-2.67-2.03-3.6.45-2.58,6.86.57,15.32,7.27,18.21,13.65,5.88,28.09,7.94,42.85,8.13Zm-115.01-166.15c6.56-.14,14.01-.8,21.39-2.06,6.4-1.09,12.61-2.96,18.71-5.14,8.65-3.09,9.87-4.92,9.84-14.2,0-.83-.07-1.67,0-2.49.3-3.39-.53-4.35-4.11-2.86-13.79,5.74-28.34,8.07-43.19,8.46-17.26.46-34.05-2.15-50.24-8.33-1.07-.41-2.6-2.25-3.52.4-2.95,8.49.56,15.85,9.16,18.99,13.24,4.84,26.97,7.01,41.96,7.24Zm117.62,133.19c5.56.38,13.48-.77,21.31-2.26,5.35-1.02,10.66-2.58,15.78-4.45,10.55-3.85,11.19-5.22,11.18-16.35,0-3.82-.61-5.04-4.71-3.33-11.92,4.97-24.5,7.25-37.36,7.92-19.15,1-37.86-1.08-55.79-8.31-1.07-.43-2.31-1.76-3.15.47-2.49,6.62.59,15.05,7.04,17.95,13.73,6.16,28.29,8.26,45.7,8.37Zm-115.49-.02c10.44,0,23.7-1.87,36.46-6.66,10.88-4.08,11.47-5.21,11.41-16.73-.02-3.56-.46-4.72-4.42-3.13-20.07,8.01-40.98,9.61-62.31,7.43-10.66-1.09-20.93-3.67-30.94-7.45-1.17-.44-2.63-2.02-3.45.65-2.5,8.17.35,14.85,8.23,18.14,13.39,5.59,27.45,7.71,45.03,7.75Z"/><path class="cls-1" d="m255.74,244.76c-6.29.02-9.51-6.24-6.25-11.69,2.81-4.7,6.01-9.18,9.1-13.72,25.51-37.55,51.04-75.1,76.55-112.65,1.41-2.07,2.72-4.33,5.14-5.28,3.05-1.2,5.92-.67,8.21,1.83,2.46,2.7,2.61,5.77.73,8.73-3.74,5.9-7.63,11.7-11.56,17.48-24.87,36.59-49.77,73.15-74.62,109.76-1.96,2.88-4.11,5.21-7.29,5.53Z"/><path class="cls-1" d="m278.28,134.69c-.4,8.75-2.64,16.79-8.07,23.72-10.67,13.63-29.73,13.3-40.1-.66-9.68-13.04-9.51-33.8.38-46.71,10.43-13.6,29.48-13.59,39.85.03,5.33,7,7.54,15.03,7.93,23.62Zm-14.88.31c-.02-6.11-2.25-12.23-5.67-15.97-4.23-4.61-10.04-4.68-14.39-.15-7.54,7.83-7.53,23.76.03,31.5,4.43,4.53,10.08,4.45,14.37-.19,4.07-4.4,5.29-9.83,5.66-15.19Z"/><path class="cls-1" d="m319.48,211c-.19-7.09,1.37-13.5,4.56-19.47,9.68-18.14,33.07-19.54,44.1-2.22,8.19,12.86,8.81,26.75,1.55,40.36-5.02,9.42-12.88,15.63-24.03,15.03-11.27-.61-18.46-7.67-23.04-17.5-2.41-5.18-3.54-10.72-3.15-16.2Zm40.12-.9c0-5.41-2.02-11.2-5.43-14.82-4.63-4.93-10.87-4.72-15.07.5-6.55,8.13-6.71,21.43-.38,29.76,4.26,5.59,11.25,5.9,15.78.54,3.68-4.36,5.26-9.52,5.1-15.98Z"/></g></svg>